<mxfile host="app.diagrams.net" agent="Mozilla/5.0 (Windows NT 10.0; Win64; x64) AppleWebKit/537.36 (KHTML, like Gecko) Chrome/141.0.0.0 Safari/537.36 Edg/141.0.0.0" version="28.2.5">
  <diagram name="Página-1" id="Ke8S_734QDI5l5gFTvMU">
    <mxGraphModel dx="1418" dy="786" grid="1" gridSize="10" guides="1" tooltips="1" connect="1" arrows="1" fold="1" page="1" pageScale="1" pageWidth="827" pageHeight="1169" math="0" shadow="0">
      <root>
        <mxCell id="0" />
        <mxCell id="1" parent="0" />
        <mxCell id="3uz-0C1JyS9pYpOQplco-3" value="" style="edgeStyle=orthogonalEdgeStyle;rounded=0;orthogonalLoop=1;jettySize=auto;html=1;" edge="1" parent="1" source="3uz-0C1JyS9pYpOQplco-1" target="3uz-0C1JyS9pYpOQplco-2">
          <mxGeometry relative="1" as="geometry" />
        </mxCell>
        <mxCell id="3uz-0C1JyS9pYpOQplco-1" value="Inincio" style="ellipse;whiteSpace=wrap;html=1;" vertex="1" parent="1">
          <mxGeometry y="130" width="120" height="80" as="geometry" />
        </mxCell>
        <mxCell id="3uz-0C1JyS9pYpOQplco-5" value="" style="edgeStyle=orthogonalEdgeStyle;rounded=0;orthogonalLoop=1;jettySize=auto;html=1;" edge="1" parent="1" source="3uz-0C1JyS9pYpOQplco-2" target="3uz-0C1JyS9pYpOQplco-4">
          <mxGeometry relative="1" as="geometry" />
        </mxCell>
        <mxCell id="3uz-0C1JyS9pYpOQplco-2" value="ler N" style="shape=parallelogram;perimeter=parallelogramPerimeter;whiteSpace=wrap;html=1;fixedSize=1;" vertex="1" parent="1">
          <mxGeometry x="190" y="140" width="120" height="60" as="geometry" />
        </mxCell>
        <mxCell id="3uz-0C1JyS9pYpOQplco-7" value="" style="edgeStyle=orthogonalEdgeStyle;rounded=0;orthogonalLoop=1;jettySize=auto;html=1;" edge="1" parent="1" source="3uz-0C1JyS9pYpOQplco-4" target="3uz-0C1JyS9pYpOQplco-6">
          <mxGeometry relative="1" as="geometry" />
        </mxCell>
        <mxCell id="3uz-0C1JyS9pYpOQplco-15" style="edgeStyle=orthogonalEdgeStyle;rounded=0;orthogonalLoop=1;jettySize=auto;html=1;entryX=0.5;entryY=0;entryDx=0;entryDy=0;" edge="1" parent="1" source="3uz-0C1JyS9pYpOQplco-4" target="3uz-0C1JyS9pYpOQplco-14">
          <mxGeometry relative="1" as="geometry">
            <Array as="points">
              <mxPoint x="414" y="400" />
            </Array>
          </mxGeometry>
        </mxCell>
        <mxCell id="3uz-0C1JyS9pYpOQplco-4" value="N==0" style="rhombus;whiteSpace=wrap;html=1;" vertex="1" parent="1">
          <mxGeometry x="374" y="130" width="80" height="80" as="geometry" />
        </mxCell>
        <mxCell id="3uz-0C1JyS9pYpOQplco-9" value="" style="edgeStyle=orthogonalEdgeStyle;rounded=0;orthogonalLoop=1;jettySize=auto;html=1;" edge="1" parent="1" source="3uz-0C1JyS9pYpOQplco-6" target="3uz-0C1JyS9pYpOQplco-8">
          <mxGeometry relative="1" as="geometry" />
        </mxCell>
        <mxCell id="3uz-0C1JyS9pYpOQplco-22" style="edgeStyle=orthogonalEdgeStyle;rounded=0;orthogonalLoop=1;jettySize=auto;html=1;entryX=0.5;entryY=0;entryDx=0;entryDy=0;" edge="1" parent="1" source="3uz-0C1JyS9pYpOQplco-6" target="3uz-0C1JyS9pYpOQplco-21">
          <mxGeometry relative="1" as="geometry" />
        </mxCell>
        <mxCell id="3uz-0C1JyS9pYpOQplco-6" value="N mod 5==0" style="rhombus;whiteSpace=wrap;html=1;" vertex="1" parent="1">
          <mxGeometry x="530" y="130" width="80" height="80" as="geometry" />
        </mxCell>
        <mxCell id="3uz-0C1JyS9pYpOQplco-12" value="" style="edgeStyle=orthogonalEdgeStyle;rounded=0;orthogonalLoop=1;jettySize=auto;html=1;" edge="1" parent="1" source="3uz-0C1JyS9pYpOQplco-13" target="3uz-0C1JyS9pYpOQplco-11">
          <mxGeometry relative="1" as="geometry">
            <Array as="points">
              <mxPoint x="880" y="210" />
              <mxPoint x="880" y="380" />
            </Array>
          </mxGeometry>
        </mxCell>
        <mxCell id="3uz-0C1JyS9pYpOQplco-18" style="edgeStyle=orthogonalEdgeStyle;rounded=0;orthogonalLoop=1;jettySize=auto;html=1;" edge="1" parent="1" source="3uz-0C1JyS9pYpOQplco-20" target="3uz-0C1JyS9pYpOQplco-17">
          <mxGeometry relative="1" as="geometry" />
        </mxCell>
        <mxCell id="3uz-0C1JyS9pYpOQplco-8" value="N mod 3==0" style="rhombus;whiteSpace=wrap;html=1;" vertex="1" parent="1">
          <mxGeometry x="710" y="130" width="80" height="80" as="geometry" />
        </mxCell>
        <mxCell id="3uz-0C1JyS9pYpOQplco-10" value="Não" style="text;html=1;align=center;verticalAlign=middle;whiteSpace=wrap;rounded=0;" vertex="1" parent="1">
          <mxGeometry x="650" y="160" width="60" height="30" as="geometry" />
        </mxCell>
        <mxCell id="3uz-0C1JyS9pYpOQplco-34" style="edgeStyle=orthogonalEdgeStyle;rounded=0;orthogonalLoop=1;jettySize=auto;html=1;" edge="1" parent="1" source="3uz-0C1JyS9pYpOQplco-11">
          <mxGeometry relative="1" as="geometry">
            <mxPoint x="1240" y="340" as="targetPoint" />
          </mxGeometry>
        </mxCell>
        <mxCell id="3uz-0C1JyS9pYpOQplco-11" value="Escrever&quot;O numero é&amp;nbsp;&lt;div&gt;multiplo de 3&quot;&lt;/div&gt;" style="shape=parallelogram;perimeter=parallelogramPerimeter;whiteSpace=wrap;html=1;fixedSize=1;" vertex="1" parent="1">
          <mxGeometry x="1000" y="320" width="140" height="60" as="geometry" />
        </mxCell>
        <mxCell id="3uz-0C1JyS9pYpOQplco-14" value="Escrever&quot;Escreverste 0-Saíste&quot;" style="shape=parallelogram;perimeter=parallelogramPerimeter;whiteSpace=wrap;html=1;fixedSize=1;" vertex="1" parent="1">
          <mxGeometry x="160" y="400" width="210" height="60" as="geometry" />
        </mxCell>
        <mxCell id="3uz-0C1JyS9pYpOQplco-35" style="edgeStyle=orthogonalEdgeStyle;rounded=0;orthogonalLoop=1;jettySize=auto;html=1;" edge="1" parent="1" source="3uz-0C1JyS9pYpOQplco-17">
          <mxGeometry relative="1" as="geometry">
            <mxPoint x="1240" y="175" as="targetPoint" />
          </mxGeometry>
        </mxCell>
        <mxCell id="3uz-0C1JyS9pYpOQplco-17" value="Escreve&quot;O numero não é mutiplo de 3 nem de 5&quot;" style="shape=parallelogram;perimeter=parallelogramPerimeter;whiteSpace=wrap;html=1;fixedSize=1;" vertex="1" parent="1">
          <mxGeometry x="960" y="145" width="170" height="60" as="geometry" />
        </mxCell>
        <mxCell id="3uz-0C1JyS9pYpOQplco-19" value="" style="edgeStyle=orthogonalEdgeStyle;rounded=0;orthogonalLoop=1;jettySize=auto;html=1;" edge="1" parent="1" source="3uz-0C1JyS9pYpOQplco-8" target="3uz-0C1JyS9pYpOQplco-20">
          <mxGeometry relative="1" as="geometry">
            <mxPoint x="790" y="170" as="sourcePoint" />
            <mxPoint x="970" y="175" as="targetPoint" />
          </mxGeometry>
        </mxCell>
        <mxCell id="3uz-0C1JyS9pYpOQplco-20" value="Não" style="text;html=1;align=center;verticalAlign=middle;whiteSpace=wrap;rounded=0;" vertex="1" parent="1">
          <mxGeometry x="830" y="155" width="60" height="30" as="geometry" />
        </mxCell>
        <mxCell id="3uz-0C1JyS9pYpOQplco-25" style="edgeStyle=orthogonalEdgeStyle;rounded=0;orthogonalLoop=1;jettySize=auto;html=1;entryX=0.5;entryY=0;entryDx=0;entryDy=0;" edge="1" parent="1" source="3uz-0C1JyS9pYpOQplco-21" target="3uz-0C1JyS9pYpOQplco-24">
          <mxGeometry relative="1" as="geometry" />
        </mxCell>
        <mxCell id="3uz-0C1JyS9pYpOQplco-29" value="" style="edgeStyle=orthogonalEdgeStyle;rounded=0;orthogonalLoop=1;jettySize=auto;html=1;" edge="1" parent="1" source="3uz-0C1JyS9pYpOQplco-21" target="3uz-0C1JyS9pYpOQplco-28">
          <mxGeometry relative="1" as="geometry" />
        </mxCell>
        <mxCell id="3uz-0C1JyS9pYpOQplco-21" value="N mod 3==0" style="rhombus;whiteSpace=wrap;html=1;" vertex="1" parent="1">
          <mxGeometry x="520" y="290" width="100" height="80" as="geometry" />
        </mxCell>
        <mxCell id="3uz-0C1JyS9pYpOQplco-23" value="Sim" style="text;html=1;align=center;verticalAlign=middle;whiteSpace=wrap;rounded=0;" vertex="1" parent="1">
          <mxGeometry x="540" y="220" width="60" height="30" as="geometry" />
        </mxCell>
        <mxCell id="3uz-0C1JyS9pYpOQplco-32" style="edgeStyle=orthogonalEdgeStyle;rounded=0;orthogonalLoop=1;jettySize=auto;html=1;entryX=0.5;entryY=0;entryDx=0;entryDy=0;" edge="1" parent="1" source="3uz-0C1JyS9pYpOQplco-24" target="3uz-0C1JyS9pYpOQplco-1">
          <mxGeometry relative="1" as="geometry">
            <mxPoint x="160" y="60" as="targetPoint" />
            <Array as="points">
              <mxPoint x="1230" y="530" />
              <mxPoint x="1230" y="40" />
              <mxPoint x="60" y="40" />
            </Array>
          </mxGeometry>
        </mxCell>
        <mxCell id="3uz-0C1JyS9pYpOQplco-24" value="Escrever&quot;O numero é mutiplo de 3 e 5&quot;" style="shape=parallelogram;perimeter=parallelogramPerimeter;whiteSpace=wrap;html=1;fixedSize=1;" vertex="1" parent="1">
          <mxGeometry x="510" y="500" width="160" height="60" as="geometry" />
        </mxCell>
        <mxCell id="3uz-0C1JyS9pYpOQplco-26" value="Sim" style="text;html=1;align=center;verticalAlign=middle;whiteSpace=wrap;rounded=0;" vertex="1" parent="1">
          <mxGeometry x="550" y="410" width="60" height="30" as="geometry" />
        </mxCell>
        <mxCell id="3uz-0C1JyS9pYpOQplco-27" value="" style="edgeStyle=orthogonalEdgeStyle;rounded=0;orthogonalLoop=1;jettySize=auto;html=1;" edge="1" parent="1" source="3uz-0C1JyS9pYpOQplco-8" target="3uz-0C1JyS9pYpOQplco-13">
          <mxGeometry relative="1" as="geometry">
            <mxPoint x="750" y="210" as="sourcePoint" />
            <mxPoint x="1000" y="380" as="targetPoint" />
            <Array as="points" />
          </mxGeometry>
        </mxCell>
        <mxCell id="3uz-0C1JyS9pYpOQplco-13" value="Sim" style="text;html=1;align=center;verticalAlign=middle;whiteSpace=wrap;rounded=0;" vertex="1" parent="1">
          <mxGeometry x="850" y="250" width="60" height="30" as="geometry" />
        </mxCell>
        <mxCell id="3uz-0C1JyS9pYpOQplco-33" style="edgeStyle=orthogonalEdgeStyle;rounded=0;orthogonalLoop=1;jettySize=auto;html=1;" edge="1" parent="1" source="3uz-0C1JyS9pYpOQplco-28">
          <mxGeometry relative="1" as="geometry">
            <mxPoint x="1230" y="480" as="targetPoint" />
            <Array as="points">
              <mxPoint x="745" y="450" />
              <mxPoint x="1230" y="450" />
            </Array>
          </mxGeometry>
        </mxCell>
        <mxCell id="3uz-0C1JyS9pYpOQplco-28" value="Escrever&quot;O número é mutiplo de 5&quot;" style="shape=parallelogram;perimeter=parallelogramPerimeter;whiteSpace=wrap;html=1;fixedSize=1;" vertex="1" parent="1">
          <mxGeometry x="670" y="310" width="150" height="60" as="geometry" />
        </mxCell>
        <mxCell id="3uz-0C1JyS9pYpOQplco-30" value="Não" style="text;html=1;align=center;verticalAlign=middle;whiteSpace=wrap;rounded=0;" vertex="1" parent="1">
          <mxGeometry x="620" y="310" width="60" height="30" as="geometry" />
        </mxCell>
      </root>
    </mxGraphModel>
  </diagram>
</mxfile>
